<?xml version="1.0" encoding="UTF-8"?>
<!DOCTYPE svg PUBLIC "-//W3C//DTD SVG 1.1//EN" "http://www.w3.org/Graphics/SVG/1.1/DTD/svg11.dtd">
<svg version="1.1" xmlns="http://www.w3.org/2000/svg" xmlns:xlink="http://www.w3.org/1999/xlink" x="0" y="0" width="1024" height="1024" viewBox="0, 0, 1024, 1024">
  <defs>
    <linearGradient id="Gradient_1" gradientUnits="userSpaceOnUse" x1="512" y1="1024" x2="512" y2="0">
      <stop offset="0" stop-color="#72A2FF"/>
      <stop offset="0" stop-color="#72A2FF"/>
      <stop offset="0" stop-color="#A2C1FF"/>
      <stop offset="1" stop-color="#2C4F90"/>
    </linearGradient>
    <clipPath id="Clip_1">
      <path d="M908.424,0 C972.255,0 1024,51.745 1024,115.576 L1024,908.424 C1024,972.255 972.255,1024 908.424,1024 L115.576,1024 C51.745,1024 0,972.255 0,908.424 L0,115.576 C0,51.745 51.745,0 115.576,0 L908.424,0 z"/>
    </clipPath>
    <filter id="InnerShadow_2">
      <feGaussianBlur in="SourceAlpha" stdDeviation="13"/>
      <feOffset dx="0" dy="2" result="offsetblur"/>
      <feFlood flood-color="#000000"/>
      <feComposite in2="offsetblur" operator="in"/>
    </filter>
    <clipPath id="Clip_3">
      <path d="M908.424,0 C972.255,0 1024,51.745 1024,115.576 L1024,908.424 C1024,972.255 972.255,1024 908.424,1024 L115.576,1024 C51.745,1024 0,972.255 0,908.424 L0,115.576 C0,51.745 51.745,0 115.576,0 L908.424,0 z"/>
    </clipPath>
    <filter id="Shadow_4">
      <feGaussianBlur in="SourceAlpha" stdDeviation="25"/>
      <feOffset dx="0" dy="0" result="offsetblur"/>
      <feFlood flood-color="#0080FF"/>
      <feComposite in2="offsetblur" operator="in"/>
    </filter>
    <linearGradient id="Gradient_2" gradientUnits="userSpaceOnUse" x1="164.943" y1="-328.66" x2="886.981" y2="-328.66" gradientTransform="matrix(0.483, 0.876, -0.876, 0.483, 0, 0)">
      <stop offset="0" stop-color="#FFFFFF"/>
      <stop offset="0.461" stop-color="#FFFFFF"/>
      <stop offset="0.676" stop-color="#FFFFFF" stop-opacity="0.206"/>
      <stop offset="0.995" stop-color="#FFFFFF" stop-opacity="0"/>
    </linearGradient>
    <radialGradient id="Gradient_3" gradientUnits="userSpaceOnUse" cx="616.587" cy="733.263" r="366.297">
      <stop offset="0" stop-color="#A7A7A7"/>
      <stop offset="0" stop-color="#A7A7A7"/>
      <stop offset="0" stop-color="#A7A7A7"/>
      <stop offset="0" stop-color="#969696"/>
      <stop offset="0.628" stop-color="#4D4D4D"/>
      <stop offset="1" stop-color="#1F1F1F"/>
    </radialGradient>
  </defs>
  <g id="background">
    <g>
      <path d="M908.424,0 C972.255,0 1024,51.745 1024,115.576 L1024,908.424 C1024,972.255 972.255,1024 908.424,1024 L115.576,1024 C51.745,1024 0,972.255 0,908.424 L-0,115.576 C0,51.745 51.745,0 115.576,0 L908.424,0 z" fill="url(#Gradient_1)"/>
      <path d="M-27,-29 L1051,-29 L1051,1053 L-27,1053 z M908.424,0 L115.576,0 C51.745,0 0,51.745 0,115.576 L0,908.424 C0,972.255 51.745,1024 115.576,1024 L908.424,1024 C972.255,1024 1024,972.255 1024,908.424 L1024,115.576 C1024,51.745 972.255,0 908.424,0 z" clip-path="url(#Clip_1)" filter="url(#InnerShadow_2)" fill="rgba(0,0,0,0.75)"/>
      <g>
        <path d="M-51,-51 L1075,-51 L1075,1075 L-51,1075 z M908.424,0 L115.576,0 C51.745,0 0,51.745 0,115.576 L0,908.424 C0,972.255 51.745,1024 115.576,1024 L908.424,1024 C972.255,1024 1024,972.255 1024,908.424 L1024,115.576 C1024,51.745 972.255,0 908.424,0 z" fill="rgba(0,0,0,0.75)" clip-path="url(#Clip_3)" filter="url(#Shadow_4)"/>
        <path d="M-51,-38.5 L1075,-38.5 L1062.5,-51 L1062.5,1075 L1075,1062.5 L-51,1062.5 L-38.5,1075 L-38.5,-51 L-51,-38.5 z M-51,-63.5 C-57.904,-63.5 -63.5,-57.904 -63.5,-51 L-63.5,1075 C-63.5,1081.904 -57.904,1087.5 -51,1087.5 L1075,1087.5 C1081.904,1087.5 1087.5,1081.904 1087.5,1075 L1087.5,-51 C1087.5,-57.904 1081.904,-63.5 1075,-63.5 L-51,-63.5 z M908.424,-12.5 L115.576,-12.5 C44.841,-12.5 -12.5,44.841 -12.5,115.576 L-12.5,908.424 C-12.5,979.159 44.841,1036.5 115.576,1036.5 L908.424,1036.5 C979.159,1036.5 1036.5,979.159 1036.5,908.424 L1036.5,115.576 C1036.5,44.841 979.159,-12.5 908.424,-12.5 z M908.424,12.5 C965.351,12.5 1011.5,58.649 1011.5,115.576 L1011.5,908.424 C1011.5,965.352 965.352,1011.5 908.424,1011.5 L115.576,1011.5 C58.649,1011.5 12.5,965.352 12.5,908.424 L12.5,115.576 C12.5,58.649 58.649,12.5 115.576,12.5 L908.424,12.5 z" fill="rgba(0,0,0,0.75)" clip-path="url(#Clip_3)" filter="url(#Shadow_4)"/>
      </g>
    </g>
    <path d="M1024,974 z" fill="#FFFFFF"/>
  </g>
  <g id="aircraft">
    <path d="M971.021,65.318 C835.81,70.492 671.582,166.028 671.582,166.028 C671.582,166.028 329.082,44.477 322.477,45.656 C289.655,29.812 210.113,52.426 222.966,93.985 C223.304,94.697 449.719,288.326 449.719,288.326 L259.674,409.159 C259.674,409.159 105.36,364.957 99.965,364.064 C72.107,355.989 18.174,384.707 45.771,415.688 C73.368,446.669 157.582,492.263 157.582,492.263 L148.302,518.829 L175.72,525.166 C175.72,525.166 169.309,620.716 180.77,660.591 C192.231,700.467 245.309,670.197 253.355,642.33 C255.48,637.292 300.495,483.213 300.495,483.213 L504.131,387.036 C504.131,387.036 546.968,681.86 547.389,682.525 C575.668,715.582 637.256,660.4 641.383,624.188 C645.907,619.233 725.994,264.737 725.994,264.737 C725.994,264.737 894.456,176.883 971.021,65.318" fill="url(#Gradient_2)"/>
  </g>
  <g id="controller">
    <g>
      <path d="M826.705,482.618 C836.084,483.049 832.129,482.625 838.604,483.508 C871.703,490.654 888.629,509.461 908.142,547.526 C927.921,582.493 941.218,616.095 958.493,696.154 C975.768,776.212 985.283,865.168 982.361,902.177 C979.439,939.186 972.665,968.109 949.699,977.551 C926.427,986.739 893.298,990.838 851.712,954.939 C810.127,919.04 807.143,911.161 767.544,883.333 C754.557,876.188 721.805,858.46 665.789,853.184 C649.398,852.506 632.991,852.287 616.587,852.175 C600.184,852.334 583.775,852.46 567.385,853.184 C511.369,858.46 478.618,876.188 465.63,883.333 C426.031,911.161 423.048,919.04 381.462,954.939 C339.876,990.838 306.747,986.739 283.475,977.551 C260.509,968.109 253.735,939.186 250.813,902.177 C247.891,865.168 257.407,776.212 274.682,696.154 C291.957,616.095 305.253,582.493 325.032,547.526 C344.545,509.461 361.471,490.654 394.57,483.508 C434.063,476.738 506.538,510.61 517.136,515.255 C524.744,517.86 532.881,518.835 540.839,519.782 C549.069,520.761 555.379,521.389 563.878,522.081 C577.494,523.191 591.222,524.123 604.896,524.056 L604.896,524.049 L628.278,524.049 L628.278,524.056 C649.681,523.851 671.084,522.311 692.335,519.782 C699.701,518.906 709.095,517.944 716.039,515.255 C751.264,499.753 787.816,484.533 826.706,482.618 z M448.976,596.166 L448.976,596.166 C403.943,596.167 367.437,632.673 367.437,677.705 C367.437,722.738 403.943,759.244 448.976,759.244 C494.009,759.244 530.515,722.738 530.515,677.705 C530.515,632.673 494.009,596.167 448.976,596.167 z" fill="url(#Gradient_3)"/>
      <path d="M800.767,653.381 C778.303,653.381 760.093,635.17 760.093,612.707 C760.093,590.243 778.303,572.032 800.767,572.032 C823.23,572.032 841.441,590.243 841.441,612.707 C841.441,635.17 823.23,653.381 800.767,653.381 z" fill="#FFFF00"/>
      <path d="M800.767,816.078 C778.303,816.078 760.093,797.867 760.093,775.403 C760.093,752.94 778.303,734.729 800.767,734.729 C823.23,734.729 841.441,752.94 841.441,775.403 C841.441,797.867 823.23,816.078 800.767,816.078 z" fill="#5BCDFA"/>
      <path d="M894.409,734.729 C871.946,734.729 853.735,716.519 853.735,694.055 C853.735,671.591 871.946,653.381 894.409,653.381 C916.873,653.381 935.084,671.591 935.084,694.055 C935.084,716.519 916.873,734.729 894.409,734.729 z" fill="#00FE00"/>
      <path d="M707.124,734.729 C684.66,734.729 666.45,716.519 666.45,694.055 C666.45,671.591 684.66,653.381 707.124,653.381 C729.588,653.381 747.798,671.591 747.798,694.055 C747.798,716.519 729.588,734.729 707.124,734.729 z" fill="#FE3400"/>
    </g>
  </g>
  <g id="connector" display="none">
    <path d="M656.5,552.5 C656.5,552.5 640.107,502.582 672.107,438.582" fill-opacity="0" stroke="#94F6FF" stroke-width="41" stroke-linecap="round"/>
    <path d="M721.251,333.958 C734.677,288.516 789.826,272.601 816.524,282.479 C878.395,305.369 894.494,377.269 823.297,424.344 C753.734,460.282 615.297,320.344 615.297,320.344" fill-opacity="0" stroke="#8FF7FF" stroke-width="41" stroke-linecap="round"/>
  </g>
</svg>
