<?xml version="1.0" encoding="UTF-8"?>
<!DOCTYPE svg PUBLIC "-//W3C//DTD SVG 1.1//EN" "http://www.w3.org/Graphics/SVG/1.1/DTD/svg11.dtd">
<svg version="1.1" xmlns="http://www.w3.org/2000/svg" xmlns:xlink="http://www.w3.org/1999/xlink" x="0" y="0" width="1920" height="1080" viewBox="0, 0, 1920, 1080">
  <g id="Layer_1">
    <path d="M1481.726,481.827 L1481.726,499.965 L1532.813,467.052 L1481.726,434.139 L1481.726,452.277 L1175.453,452.277 L1175.453,481.827 z" fill="#FF9300"/>
    <text transform="matrix(1, 0, -0, 1, 1354.133, 405.846)">
      <tspan x="-148.538" y="10" font-family="HelveticaNeue-Medium" font-size="29" fill="#FFFFFF">Change Device Statu</tspan>
      <tspan x="133.487" y="10" font-family="HelveticaNeue-Medium" font-size="29" kerning="0" fill="#FFFFFF">s</tspan>
    </text>
    <path d="M1217.673,361.814 L1217.673,379.952 L1166.587,347.039 L1217.673,314.126 L1217.673,332.264 L1523.947,332.264 L1523.947,361.814 z" fill="#61D836"/>
    <g>
      <text transform="matrix(1, 0, -0, 1, 1274.884, 285.833)">
        <tspan x="-45.675" y="10" font-family="HelveticaNeue-Medium" font-size="29" fill="#FFFFFF">Devic</tspan>
        <tspan x="29.551" y="10" font-family="HelveticaNeue-Medium" font-size="29" kerning="0" fill="#FFFFFF">e</tspan>
      </text>
      <text transform="matrix(1, 0, -0, 1, 1335.059, 285.833)">
        <tspan x="-14.5" y="10" font-family="HelveticaNeue-Medium" font-size="29" kerning="0" fill="#000000"> </tspan>
      </text>
      <text transform="matrix(1, 0, -0, 1, 1394.973, 285.833)">
        <tspan x="-66.352" y="10" font-family="HelveticaNeue-Medium" font-size="29" fill="#FFFFFF">Operatio</tspan>
        <tspan x="49.706" y="10" font-family="HelveticaNeue-Medium" font-size="29" kerning="0" fill="#FFFFFF">n</tspan>
      </text>
    </g>
    <path d="M1584.889,627.289 C1581.377,627.289 1578.467,630.199 1578.467,633.712 L1578.467,825.776 C1578.467,829.289 1581.377,832.222 1584.889,832.222 L1705.07,832.222 L1704.626,833.997 L1699.605,859.126 L1684.892,859.126 L1684.892,868.468 L1723.59,868.468 L1732.184,868.468 L1770.905,868.468 L1770.905,859.126 L1756.192,859.126 L1751.171,833.997 L1750.797,832.222 L1870.907,832.222 C1874.42,832.222 1877.33,829.289 1877.33,825.776 L1877.33,633.712 C1877.405,630.199 1874.49,627.289 1870.978,627.289 L1584.889,627.289 z M1727.933,633.338 C1729.503,633.338 1730.783,634.543 1730.783,636.187 C1730.783,637.757 1729.503,639.037 1727.933,639.037 C1726.364,639.037 1725.084,637.757 1725.084,636.187 C1725.084,634.618 1726.364,633.338 1727.933,633.338 z M1595.656,646.65 L1860.211,646.65 L1860.211,797.378 L1595.656,797.378 L1595.656,646.65 z M1595.656,646.65" fill-opacity="0" stroke="#FFFFFF" stroke-width="5"/>
    <text transform="matrix(1, 0, -0, 1, 1727.899, 588.344)">
      <tspan x="-64.932" y="15.5" font-family="HelveticaNeue-Light" font-size="42" fill="#FFFFFF">Displa</tspan>
      <tspan x="45.486" y="15.5" font-family="HelveticaNeue-Light" font-size="42" kerning="0" fill="#FFFFFF">y</tspan>
    </text>
    <path d="M1585.048,425.573 L1632.037,425.573 L1632.037,345.938 L1585.048,345.938 L1585.048,425.573 z M1605.092,409.83 L1605.092,402.588 L1615.333,402.588 L1615.333,409.83 L1605.092,409.83 z M1605.092,368.982 L1605.092,361.741 L1615.333,361.741 L1615.333,368.982 L1605.092,368.982 z M1638.878,435.294 C1638.878,435.614 1639.134,435.935 1639.518,435.935 L1735.996,435.935 C1738.044,435.934 1740.085,435.418 1741.877,434.394 L1777.144,414.551 C1777.592,414.294 1777.864,413.862 1777.864,413.35 L1777.864,408.93 C1777.864,408.161 1778.496,407.509 1779.264,407.509 L1786.825,407.509 C1787.594,407.509 1788.226,406.877 1788.226,406.109 L1788.226,394.387 C1788.226,393.619 1788.858,392.987 1789.626,392.987 L1840.455,392.987 C1840.775,392.987 1841.095,392.73 1841.095,392.346 L1841.155,392.346 L1841.155,379.164 C1841.155,378.844 1840.835,378.524 1840.515,378.524 L1789.706,378.524 C1788.938,378.524 1788.286,377.872 1788.286,377.104 L1788.286,365.401 C1788.286,364.633 1787.653,363.981 1786.885,363.981 L1779.264,363.981 C1778.496,363.981 1777.864,363.349 1777.864,362.581 L1777.864,358.16 C1777.864,357.648 1777.592,357.196 1777.144,356.94 L1741.877,337.096 C1740.085,336.072 1738.044,335.576 1735.996,335.576 L1639.518,335.576 C1639.134,335.576 1638.878,335.832 1638.878,336.216 L1638.878,435.294 z M1638.878,435.294" fill-opacity="0" stroke="#FFFFFF" stroke-width="5"/>
    <g>
      <text transform="matrix(1, 0, -0, 1, 1712.913, 245.63)">
        <tspan x="-163.59" y="15.5" font-family="HelveticaNeue-Light" font-size="42" fill="#FFFFFF">Gaming Cont</tspan>
        <tspan x="77.574" y="15.5" font-family="HelveticaNeue-Light" font-size="42" kerning="-0.378" fill="#FFFFFF">r</tspan>
        <tspan x="89.67" y="15.5" font-family="HelveticaNeue-Light" font-size="42" fill="#FFFFFF">oller</tspan>
        <tspan x="163.59" y="15.5" font-family="HelveticaNeue-Light" font-size="42" kerning="0" fill="#FFFFFF"> </tspan>
      </text>
      <text transform="matrix(1, 0, -0, 1, 1713.102, 296.63)">
        <tspan x="-134.967" y="15.5" font-family="HelveticaNeue-Light" font-size="42" fill="#FFFFFF">SimHID Devic</tspan>
        <tspan x="113.169" y="15.5" font-family="HelveticaNeue-Light" font-size="42" kerning="0" fill="#FFFFFF">e</tspan>
      </text>
    </g>
    <path d="M675.303,282.111 L1069.669,282.111 C1082.69,282.111 1090.502,282.111 1095.71,284.285 C1103.218,287.018 1109.132,292.932 1111.865,300.44 C1114.04,305.649 1114.04,313.461 1114.04,326.481 L1114.04,753.519 C1114.04,766.539 1114.04,774.351 1111.865,779.56 C1109.132,787.068 1103.218,792.982 1095.71,795.715 C1090.502,797.889 1082.69,797.889 1069.669,797.889 L675.303,797.889 C662.282,797.889 654.47,797.889 649.262,795.715 C641.754,792.982 635.839,787.068 633.107,779.56 C630.932,774.351 630.932,766.539 630.932,753.519 L630.932,326.481 C630.932,313.461 630.932,305.649 633.107,300.44 C635.839,292.932 641.754,287.018 649.262,284.285 C654.47,282.111 662.282,282.111 675.303,282.111 z M675.303,282.111" fill="#56C1FF"/>
    <text transform="matrix(1, 0, -0, 1, 872.479, 539.831)">
      <tspan x="-183.33" y="33" font-family="HelveticaNeue-Light" font-size="90" fill="#FFFFFF">fsmappe</tspan>
      <tspan x="154.98" y="33" font-family="HelveticaNeue-Light" font-size="90" kerning="0" fill="#FFFFFF">r</tspan>
    </text>
    <path d="M77.713,403.415 C76.573,403.415 75.636,404.328 75.636,405.469 L75.636,674.531 C75.636,675.672 76.573,676.585 77.713,676.585 L284.502,676.585 C285.643,676.585 286.579,675.672 286.579,674.531 L286.579,477.963 C286.579,477.563 286.256,477.231 285.848,477.231 L214.864,477.231 C213.724,477.231 212.787,476.318 212.787,475.178 L212.787,404.147 C212.787,403.739 212.456,403.415 212.055,403.415 L77.713,403.415 z M222.3,404.501 C222.044,404.607 221.852,404.857 221.852,405.186 L221.852,466.113 C221.852,467.254 222.788,468.167 223.929,468.167 L284.809,468.167 C285.466,468.167 285.789,467.376 285.328,466.916 L223.103,404.667 C222.872,404.436 222.556,404.396 222.3,404.501 z M222.3,404.501" fill="#C3C3C3"/>
    <text transform="matrix(1, 0, -0, 1, 181.105, 539.528)">
      <tspan x="-56.066" y="24.5" font-family="HelveticaNeue" font-size="68" fill="#454545">Lu</tspan>
      <tspan x="19.55" y="24.5" font-family="HelveticaNeue" font-size="68" kerning="0" fill="#454545">a</tspan>
    </text>
    <g>
      <text transform="matrix(1, 0, -0, 1, 62.479, 366.97)">
        <tspan x="-37.737" y="15.5" font-family="HelveticaNeue-Light" font-size="42" fill="#FFFFFF">Co</tspan>
        <tspan x="15.183" y="15.5" font-family="HelveticaNeue-Light" font-size="42" kerning="0" fill="#FFFFFF">n</tspan>
      </text>
      <text transform="matrix(1, 0, -0, 1, 109.54, 366.97)">
        <tspan x="-9.324" y="15.5" font-family="HelveticaNeue-Light" font-size="42" kerning="0" fill="#FFFFFF">ﬁ</tspan>
      </text>
      <text transform="matrix(1, 0, -0, 1, 228.169, 366.97)">
        <tspan x="-109.305" y="15.5" font-family="HelveticaNeue-Light" font-size="42" fill="#FFFFFF">guration Fil</tspan>
        <tspan x="87.507" y="15.5" font-family="HelveticaNeue-Light" font-size="42" kerning="0" fill="#FFFFFF">e</tspan>
      </text>
    </g>
    <path d="M633.871,9.979 L1111.101,9.979 C1117.829,9.979 1121.867,9.979 1124.558,11.103 C1128.438,12.515 1131.495,15.571 1132.907,19.451 C1134.031,22.143 1134.031,26.18 1134.031,32.909 L1134.031,87.049 C1134.031,93.778 1134.031,97.815 1132.907,100.507 C1131.495,104.387 1128.438,107.443 1124.558,108.855 C1121.867,109.979 1117.829,109.979 1111.101,109.979 L633.871,109.979 C627.142,109.979 623.105,109.979 620.414,108.855 C616.533,107.443 613.477,104.387 612.065,100.507 C610.941,97.815 610.941,93.778 610.941,87.049 L610.941,32.909 C610.941,26.18 610.941,22.143 612.065,19.451 C613.477,15.571 616.533,12.515 620.414,11.103 C623.105,9.979 627.142,9.979 633.871,9.979 z M633.871,9.979" fill-opacity="0" stroke="#FFFFFF" stroke-width="5"/>
    <text transform="matrix(1, 0, -0, 1, 872.488, 59.761)">
      <tspan x="-149.175" y="16.5" font-family="HelveticaNeue-Light" font-size="45" fill="#FFFFFF">Flight Simulato</tspan>
      <tspan x="135" y="16.5" font-family="HelveticaNeue-Light" font-size="45" kerning="0" fill="#FFFFFF">r</tspan>
    </text>
    <path d="M564.833,965.056 L834.607,965.056 C841.336,965.056 845.373,965.056 848.065,966.18 C851.945,967.592 855.001,970.648 856.414,974.528 C857.537,977.22 857.537,981.257 857.537,987.986 L857.537,1042.126 C857.537,1048.855 857.537,1052.892 856.414,1055.583 C855.001,1059.464 851.945,1062.52 848.065,1063.932 C845.373,1065.056 841.336,1065.056 834.607,1065.056 L564.833,1065.056 C558.104,1065.056 554.067,1065.056 551.376,1063.932 C547.496,1062.52 544.439,1059.464 543.027,1055.583 C541.903,1052.892 541.903,1048.855 541.903,1042.126 L541.903,987.986 C541.903,981.257 541.903,977.22 543.027,974.528 C544.439,970.648 547.496,967.592 551.376,966.18 C554.067,965.056 558.104,965.056 564.833,965.056 z M564.833,965.056" fill-opacity="0" stroke="#FFFFFF" stroke-width="5"/>
    <text transform="matrix(1, 0, -0, 1, 699.724, 1014.837)">
      <tspan x="-115.875" y="16.5" font-family="HelveticaNeue-Light" font-size="45" fill="#FFFFFF">vJoy Devic</tspan>
      <tspan x="92.52" y="16.5" font-family="HelveticaNeue-Light" font-size="45" kerning="0" fill="#FFFFFF">e</tspan>
    </text>
    <path d="M1481.726,809.028 L1481.726,827.166 L1532.813,794.253 L1481.726,761.34 L1481.726,779.478 L1175.453,779.478 L1175.453,809.028 z" fill="#FF9300"/>
    <g>
      <text transform="matrix(1, 0, -0, 1, 1354.133, 698.047)">
        <tspan x="-99.383" y="10" font-family="HelveticaNeue-Medium" font-size="29" fill="#FFFFFF">Draw Graphics</tspan>
        <tspan x="99.383" y="10" font-family="HelveticaNeue-Medium" font-size="29" kerning="0" fill="#FFFFFF"> </tspan>
      </text>
      <text transform="matrix(1, 0, -0, 1, 1354.133, 733.047)">
        <tspan x="-168.403" y="10" font-family="HelveticaNeue-Medium" font-size="29" fill="#FFFFFF">Popped out Window Op</tspan>
        <tspan x="153.352" y="10" font-family="HelveticaNeue-Medium" font-size="29" kerning="0" fill="#FFFFFF">s</tspan>
      </text>
    </g>
    <path d="M1217.673,656.457 L1217.673,674.595 L1166.587,641.682 L1217.673,608.769 L1217.673,626.907 L1523.947,626.907 L1523.947,656.457 z" fill="#61D836"/>
    <g>
      <text transform="matrix(1, 0, -0, 1, 1344.462, 545.477)">
        <tspan x="-109.874" y="10" font-family="HelveticaNeue-Medium" font-size="29" kerning="-1.609" fill="#FFFFFF">T</tspan>
        <tspan x="-97.505" y="10" font-family="HelveticaNeue-Medium" font-size="29" fill="#FFFFFF">ouch Operation</tspan>
        <tspan x="109.874" y="10" font-family="HelveticaNeue-Medium" font-size="29" kerning="0" fill="#FFFFFF"> </tspan>
      </text>
      <text transform="matrix(1, 0, -0, 1, 1345.266, 580.477)">
        <tspan x="-115.783" y="10" font-family="HelveticaNeue-Medium" font-size="29" fill="#FFFFFF">Mouse Operatio</tspan>
        <tspan x="99.136" y="10" font-family="HelveticaNeue-Medium" font-size="29" kerning="0" fill="#FFFFFF">n</tspan>
      </text>
    </g>
    <path d="M939.323,179.213 L957.461,179.213 L924.548,128.126 L891.635,179.213 L909.773,179.213 L909.773,266.464 L939.323,266.464 z" fill="#FF9300"/>
    <path d="M853.191,215.377 L871.329,215.377 L838.416,266.464 L805.503,215.377 L823.641,215.377 L823.641,128.126 L853.191,128.126 z" fill="#61D836"/>
    <text transform="matrix(1, 0, -0, 1, 1139.332, 174.146)">
      <tspan x="-151.365" y="10" font-family="HelveticaNeue-Medium" font-size="29" fill="#FFFFFF">Change Ai</tspan>
      <tspan x="-13.297" y="10" font-family="HelveticaNeue-Medium" font-size="29" kerning="-0.261" fill="#FFFFFF">r</tspan>
      <tspan x="-3.872" y="10" font-family="HelveticaNeue-Medium" font-size="29" fill="#FFFFFF">craft Statu</tspan>
      <tspan x="136.314" y="10" font-family="HelveticaNeue-Medium" font-size="29" kerning="0" fill="#FFFFFF">s</tspan>
    </text>
    <text transform="matrix(1, 0, -0, 1, 610.759, 174.146)">
      <tspan x="-155.686" y="10" font-family="HelveticaNeue-Medium" font-size="29" fill="#FFFFFF">Observe Ai</tspan>
      <tspan x="-8.976" y="10" font-family="HelveticaNeue-Medium" font-size="29" kerning="-0.261" fill="#FFFFFF">r</tspan>
      <tspan x="0.449" y="10" font-family="HelveticaNeue-Medium" font-size="29" fill="#FFFFFF">craft Statu</tspan>
      <tspan x="140.635" y="10" font-family="HelveticaNeue-Medium" font-size="29" kerning="0" fill="#FFFFFF">s</tspan>
    </text>
    <path d="M763.331,900.787 L745.193,900.787 L778.106,951.874 L811.019,900.787 L792.881,900.787 L792.881,813.536 L763.331,813.536 z" fill="#FF9300"/>
    <text transform="matrix(1, 0, -0, 1, 603.674, 881.117)">
      <tspan x="-130.449" y="10" font-family="HelveticaNeue-Medium" font-size="29" fill="#FFFFFF">Feed Device </tspan>
      <tspan x="44.189" y="10" font-family="HelveticaNeue-Medium" font-size="29" kerning="-0.798" fill="#FFFFFF">V</tspan>
      <tspan x="59.515" y="10" font-family="HelveticaNeue-Medium" font-size="29" fill="#FFFFFF">alue</tspan>
      <tspan x="115.398" y="10" font-family="HelveticaNeue-Medium" font-size="29" kerning="0" fill="#FFFFFF">s</tspan>
    </text>
    <path d="M556.075,583.255 L556.075,601.393 L607.161,568.48 L556.075,535.568 L556.075,553.706 L310.351,553.706 L310.351,583.255 z" fill="#929292"/>
    <g>
      <text transform="matrix(1, 0, -0, 1, 458.756, 472.275)">
        <tspan x="-86.493" y="10" font-family="HelveticaNeue-Medium" font-size="29" fill="#FFFFFF">Event-Action</tspan>
        <tspan x="86.493" y="10" font-family="HelveticaNeue-Medium" font-size="29" kerning="0" fill="#FFFFFF"> </tspan>
      </text>
      <text transform="matrix(1, 0, -0, 1, 413.632, 507.275)">
        <tspan x="-81.649" y="10" font-family="HelveticaNeue-Medium" font-size="29" fill="#FFFFFF">Mapping D</tspan>
        <tspan x="65.525" y="10" font-family="HelveticaNeue-Medium" font-size="29" kerning="0" fill="#FFFFFF">e</tspan>
      </text>
      <text transform="matrix(1, 0, -0, 1, 503.343, 507.275)">
        <tspan x="-8.062" y="10" font-family="HelveticaNeue-Medium" font-size="29" kerning="0" fill="#FFFFFF">ﬁ</tspan>
      </text>
      <text transform="matrix(1, 0, -0, 1, 548.467, 507.275)">
        <tspan x="-37.062" y="10" font-family="HelveticaNeue-Medium" font-size="29" fill="#FFFFFF">nitio</tspan>
        <tspan x="20.416" y="10" font-family="HelveticaNeue-Medium" font-size="29" kerning="0" fill="#FFFFFF">n</tspan>
      </text>
    </g>
    <path d="M111.385,894.889 L111.385,913.027 L60.298,880.114 L111.385,847.202 L111.385,865.34 L161.876,865.34 L161.876,894.889 z" fill="#60D837"/>
    <path d="M111.385,972.061 L111.385,990.199 L60.298,957.286 L111.385,924.373 L111.385,942.511 L161.876,942.511 L161.876,972.061 z" fill="#FF9300"/>
    <text transform="matrix(1, 0, -0, 1, 259.227, 881.017)">
      <tspan x="-83.158" y="10" font-family="HelveticaNeue-Light" font-size="29" fill="#FFFFFF">Event Sou</tspan>
      <tspan x="44.703" y="10" font-family="HelveticaNeue-Light" font-size="29" kerning="-0.261" fill="#FFFFFF">r</tspan>
      <tspan x="53.056" y="10" font-family="HelveticaNeue-Light" font-size="29" fill="#FFFFFF">c</tspan>
      <tspan x="68.106" y="10" font-family="HelveticaNeue-Light" font-size="29" kerning="0" fill="#FFFFFF">e</tspan>
    </text>
    <text transform="matrix(1, 0, -0, 1, 215.553, 958.189)">
      <tspan x="-39.484" y="10" font-family="HelveticaNeue-Light" font-size="29" fill="#FFFFFF">Action</tspan>
      <tspan x="39.484" y="10" font-family="HelveticaNeue-Light" font-size="29" kerning="0" fill="#FFFFFF"> </tspan>
    </text>
    <path d="M111.385,1049.233 L111.385,1067.371 L60.298,1034.458 L111.385,1001.545 L111.385,1019.683 L161.876,1019.683 L161.876,1049.233 z" fill="#929292"/>
    <text transform="matrix(1, 0, -0, 1, 209.115, 1035.361)">
      <tspan x="-33.046" y="10" font-family="HelveticaNeue-Light" font-size="29" fill="#FFFFFF">Read</tspan>
      <tspan x="33.046" y="10" font-family="HelveticaNeue-Light" font-size="29" kerning="0" fill="#FFFFFF"> </tspan>
    </text>
    <path d="M34.929,811.955 L382.475,811.955 L382.475,1075.029 L34.929,1075.029 z" fill-opacity="0" stroke="#FFFFFF" stroke-width="3" stroke-opacity="0.431"/>
    <path d="M152.411,835.855 L274.881,835.855 L274.881,786.871 L152.411,786.871 z" fill="#1B1B1D"/>
    <text transform="matrix(1, 0, -0, 1, 213.146, 811.9)">
      <tspan x="-56.735" y="12.5" font-family="HelveticaNeue-Light" font-size="35" fill="#FFFFFF">Legen</tspan>
      <tspan x="36.645" y="12.5" font-family="HelveticaNeue-Light" font-size="35" kerning="0" fill="#FFFFFF">d</tspan>
    </text>
    <path d="M923.755,965.056 L1193.529,965.056 C1200.257,965.056 1204.295,965.056 1206.986,966.18 C1210.866,967.592 1213.923,970.648 1215.335,974.528 C1216.458,977.22 1216.458,981.257 1216.458,987.986 L1216.458,1042.126 C1216.458,1048.855 1216.458,1052.892 1215.335,1055.583 C1213.923,1059.464 1210.866,1062.52 1206.986,1063.932 C1204.295,1065.056 1200.257,1065.056 1193.529,1065.056 L923.755,1065.056 C917.026,1065.056 912.988,1065.056 910.297,1063.932 C906.417,1062.52 903.36,1059.464 901.948,1055.583 C900.825,1052.892 900.825,1048.855 900.825,1042.126 L900.825,987.986 C900.825,981.257 900.825,977.22 901.948,974.528 C903.36,970.648 906.417,967.592 910.297,966.18 C912.988,965.056 917.026,965.056 923.755,965.056 z M923.755,965.056" fill-opacity="0" stroke="#FFFFFF" stroke-width="5"/>
    <text transform="matrix(1, 0, -0, 1, 1058.916, 1014.837)">
      <tspan x="-90.382" y="16.5" font-family="HelveticaNeue-Light" font-size="45" kerning="0.54" fill="#FFFFFF">W</tspan>
      <tspan x="-47.947" y="16.5" font-family="HelveticaNeue-Light" font-size="45" fill="#FFFFFF">indow</tspan>
      <tspan x="68.738" y="16.5" font-family="HelveticaNeue-Light" font-size="45" kerning="0" fill="#FFFFFF">s</tspan>
    </text>
    <path d="M945.225,898.197 L927.087,898.197 L960,949.283 L992.913,898.197 L974.775,898.197 L974.775,810.946 L945.225,810.946 z" fill="#FF9300"/>
    <text transform="matrix(1, 0, -0, 1, 1157.563, 880.901)">
      <tspan x="-143.855" y="10" font-family="HelveticaNeue-Medium" font-size="29" fill="#FFFFFF">Synthesize Keyst</tspan>
      <tspan x="85.535" y="10" font-family="HelveticaNeue-Medium" font-size="29" kerning="-0.261" fill="#FFFFFF">r</tspan>
      <tspan x="94.961" y="10" font-family="HelveticaNeue-Medium" font-size="29" fill="#FFFFFF">ok</tspan>
      <tspan x="127.73" y="10" font-family="HelveticaNeue-Medium" font-size="29" kerning="0" fill="#FFFFFF">e</tspan>
    </text>
  </g>
</svg>
